# xmcd
# Copyright (C) 1995-1998 Ti Kan
#
# Track frame offsets:
#       150
#       16335
#       38636
#       70036
#       101295
#
# Disc length: 1899 seconds
#
# Revision: 0
# Processed by: cddbd v1.5.2PL0 Copyright (c) Steve Scherf et al.
# Submitted via: CD-Import v1.0
#
DISCID=2f076905
DTITLE=Jon Hopkins - Seven Gulps Of Air - Promo
DYEAR=2009
DGENRE=
TTITLE0=Seven Gulps Of Air (Feat. Tunng)
TTITLE1=Small Memory (Tunng Remix)
TTITLE2=The Low Places (Geese Remix)
TTITLE3=A Drifting Down
TTITLE4=Light Through The Veins (Tom Middleton Remix)
EXTD=
EXTT0=
EXTT1=
EXTT2=
EXTT3=
EXTT4=
PLAYORDER=
